# xmcd
#
# Track frame offsets:
#	150
#	13097
#	25177
#	36977
#	49132
#	61677
#	73925
#	86677
#	100482
#	113497
#	127752
#	141185
#	153570
#	167222
#	178625
#	190472
#	204497
#	218305
#	230240
#	243027
#	254742
#	267387
#	277517
#	290550
#	301302
#	310935
#	325202
#
# Disc length: 4477 seconds
#
# Revision: 0
# Processed by: cddbd v1.4PL0 Copyright (c) Steve Scherf et al.
# Submitted via: EasyCDDAExtractor 5.0.4.1
#
DISCID=87117b1b
DTITLE=Merle Travis - Sixteen Tons
DYEAR=1900
DGENRE=Country
TTITLE0=Sixteen Tons
TTITLE1=No Vacancy
TTITLE2=Cincinnati Lou
TTITLE3=Nine Pound Hammer
TTITLE4=What a Shame
TTITLE5=Missouri
TTITLE6=Dark As a Dungeon
TTITLE7=Divorce Me C.O.D.
TTITLE8=Sweet Temptation
TTITLE9=Over by Number Nine
TTITLE10=So Round, So Firm, So Fully Packed
TTITLE11=Steel Guitar Rag
TTITLE12=That's All
TTITLE13=Sioux City Sue
TTITLE14=Fat Gal
TTITLE15=John Henry
TTITLE16=Merle's Boogie Woogie
TTITLE17=Blues, Stay Away from Me
TTITLE18=I'm a Natural Born Gamblin' Man
TTITLE19=Muskrat
TTITLE20=Crazy Boogie
TTITLE21=Too Much Sugar for a Dime
TTITLE22=I Am a Pilgrim
TTITLE23=Lost John Boogie
TTITLE24=Deep South
TTITLE25=Start Even
TTITLE26=Done Rovin'
EXTD=
EXTT0=
EXTT1=
EXTT2=
EXTT3=
EXTT4=
EXTT5=
EXTT6=
EXTT7=
EXTT8=
EXTT9=
EXTT10=
EXTT11=
EXTT12=
EXTT13=
EXTT14=
EXTT15=
EXTT16=
EXTT17=
EXTT18=
EXTT19=
EXTT20=
EXTT21=
EXTT22=
EXTT23=
EXTT24=
EXTT25=
EXTT26=
PLAYORDER=
